<mxfile host="app.diagrams.net" modified="2024-01-20T08:39:45.785Z" agent="Mozilla/5.0 (X11; Linux x86_64) AppleWebKit/537.36 (KHTML, like Gecko) Chrome/120.0.0.0 Safari/537.36" etag="v6wsHpdauBRJoBUT8d2E" version="22.1.20" type="github">
  <diagram name="Page-1" id="e7e014a7-5840-1c2e-5031-d8a46d1fe8dd">
    <mxGraphModel dx="880" dy="499" grid="1" gridSize="10" guides="1" tooltips="1" connect="1" arrows="1" fold="1" page="1" pageScale="1" pageWidth="1169" pageHeight="826" background="none" math="0" shadow="0">
      <root>
        <mxCell id="0" />
        <mxCell id="1" parent="0" />
        <mxCell id="2" value="Activity Diagram" style="swimlane;whiteSpace=wrap" parent="1" vertex="1">
          <mxGeometry x="210" y="420" width="770" height="1330" as="geometry" />
        </mxCell>
        <mxCell id="8gmGzq6QKM89YY9m7t-U-49" value="" style="ellipse;html=1;shape=startState;fillColor=#000000;strokeColor=#ff0000;" parent="2" vertex="1">
          <mxGeometry x="310" y="80" width="30" height="30" as="geometry" />
        </mxCell>
        <mxCell id="8gmGzq6QKM89YY9m7t-U-50" value="" style="edgeStyle=orthogonalEdgeStyle;html=1;verticalAlign=bottom;endArrow=open;endSize=8;strokeColor=#ff0000;rounded=0;entryX=0.5;entryY=0;entryDx=0;entryDy=0;" parent="2" source="8gmGzq6QKM89YY9m7t-U-49" target="8gmGzq6QKM89YY9m7t-U-53" edge="1">
          <mxGeometry relative="1" as="geometry">
            <mxPoint x="320" y="170" as="targetPoint" />
            <Array as="points">
              <mxPoint x="325" y="110" />
              <mxPoint x="325" y="110" />
            </Array>
          </mxGeometry>
        </mxCell>
        <mxCell id="8gmGzq6QKM89YY9m7t-U-53" value="&lt;font style=&quot;font-size: 15px;&quot;&gt;Authenticate User&lt;/font&gt;" style="rounded=1;whiteSpace=wrap;html=1;arcSize=40;fontColor=#000000;fillColor=#ffffc0;strokeColor=#ff0000;movable=1;resizable=1;rotatable=1;deletable=1;editable=1;locked=0;connectable=1;" parent="2" vertex="1">
          <mxGeometry x="260" y="170" width="130" height="50" as="geometry" />
        </mxCell>
        <mxCell id="8gmGzq6QKM89YY9m7t-U-55" value="Success?" style="rhombus;whiteSpace=wrap;html=1;fontColor=#000000;fillColor=#ffffc0;strokeColor=#ff0000;" parent="2" vertex="1">
          <mxGeometry x="290" y="270" width="80" height="70" as="geometry" />
        </mxCell>
        <mxCell id="8gmGzq6QKM89YY9m7t-U-57" value="yes" style="edgeStyle=orthogonalEdgeStyle;html=1;align=left;verticalAlign=top;endArrow=open;endSize=8;strokeColor=#ff0000;rounded=0;" parent="2" source="8gmGzq6QKM89YY9m7t-U-55" edge="1">
          <mxGeometry x="-1" relative="1" as="geometry">
            <mxPoint x="330" y="390" as="targetPoint" />
          </mxGeometry>
        </mxCell>
        <mxCell id="8gmGzq6QKM89YY9m7t-U-58" value="" style="edgeStyle=orthogonalEdgeStyle;html=1;verticalAlign=bottom;endArrow=open;endSize=8;strokeColor=#ff0000;rounded=0;entryX=0.5;entryY=0;entryDx=0;entryDy=0;" parent="2" target="8gmGzq6QKM89YY9m7t-U-55" edge="1">
          <mxGeometry relative="1" as="geometry">
            <mxPoint x="330" y="180" as="targetPoint" />
            <mxPoint x="330" y="222" as="sourcePoint" />
            <Array as="points" />
          </mxGeometry>
        </mxCell>
        <mxCell id="8gmGzq6QKM89YY9m7t-U-59" value="&lt;span style=&quot;font-size: 15px;&quot;&gt;Perform Recharge&lt;/span&gt;" style="rounded=1;whiteSpace=wrap;html=1;arcSize=40;fontColor=#000000;fillColor=#ffffc0;strokeColor=#ff0000;" parent="2" vertex="1">
          <mxGeometry x="265" y="390" width="130" height="50" as="geometry" />
        </mxCell>
        <mxCell id="8gmGzq6QKM89YY9m7t-U-60" value="" style="edgeStyle=orthogonalEdgeStyle;html=1;verticalAlign=bottom;endArrow=open;endSize=8;strokeColor=#ff0000;rounded=0;" parent="2" source="8gmGzq6QKM89YY9m7t-U-59" edge="1">
          <mxGeometry relative="1" as="geometry">
            <mxPoint x="330" y="490" as="targetPoint" />
          </mxGeometry>
        </mxCell>
        <mxCell id="8gmGzq6QKM89YY9m7t-U-62" value="no" style="edgeStyle=orthogonalEdgeStyle;html=1;align=left;verticalAlign=bottom;endArrow=open;endSize=8;strokeColor=#ff0000;rounded=0;entryX=1;entryY=0.5;entryDx=0;entryDy=0;" parent="2" edge="1" target="8gmGzq6QKM89YY9m7t-U-53">
          <mxGeometry x="-1" relative="1" as="geometry">
            <mxPoint x="460" y="200" as="targetPoint" />
            <mxPoint x="370" y="305" as="sourcePoint" />
            <Array as="points">
              <mxPoint x="370" y="306" />
              <mxPoint x="490" y="306" />
              <mxPoint x="490" y="195" />
            </Array>
          </mxGeometry>
        </mxCell>
        <mxCell id="8gmGzq6QKM89YY9m7t-U-63" value="" style="edgeStyle=orthogonalEdgeStyle;html=1;align=left;verticalAlign=top;endArrow=open;endSize=8;strokeColor=#ff0000;rounded=0;exitX=0.5;exitY=1;exitDx=0;exitDy=0;" parent="2" source="oC2dPemSwdEFfNwm2UEb-25" edge="1">
          <mxGeometry x="-1" relative="1" as="geometry">
            <mxPoint x="340" y="920" as="targetPoint" />
            <mxPoint x="425" y="880" as="sourcePoint" />
            <Array as="points">
              <mxPoint x="340" y="850" />
            </Array>
          </mxGeometry>
        </mxCell>
        <mxCell id="8gmGzq6QKM89YY9m7t-U-64" value="&lt;font style=&quot;font-size: 14px;&quot;&gt;Payment Successful&lt;/font&gt;" style="rhombus;whiteSpace=wrap;html=1;fontColor=#000000;fillColor=#ffffc0;strokeColor=#ff0000;" parent="2" vertex="1">
          <mxGeometry x="247.5" y="490" width="165" height="100" as="geometry" />
        </mxCell>
        <mxCell id="8gmGzq6QKM89YY9m7t-U-65" value="no" style="edgeStyle=orthogonalEdgeStyle;html=1;align=left;verticalAlign=bottom;endArrow=open;endSize=8;strokeColor=#ff0000;rounded=0;exitX=1;exitY=0.5;exitDx=0;exitDy=0;" parent="2" source="8gmGzq6QKM89YY9m7t-U-64" edge="1">
          <mxGeometry x="-1" relative="1" as="geometry">
            <mxPoint x="480" y="540" as="targetPoint" />
            <Array as="points">
              <mxPoint x="470" y="540" />
            </Array>
          </mxGeometry>
        </mxCell>
        <mxCell id="8gmGzq6QKM89YY9m7t-U-66" value="yes" style="edgeStyle=orthogonalEdgeStyle;html=1;align=left;verticalAlign=top;endArrow=open;endSize=8;strokeColor=#ff0000;rounded=0;exitX=0.5;exitY=1;exitDx=0;exitDy=0;" parent="2" source="8gmGzq6QKM89YY9m7t-U-64" edge="1">
          <mxGeometry x="-1" relative="1" as="geometry">
            <mxPoint x="330" y="660" as="targetPoint" />
            <Array as="points">
              <mxPoint x="330" y="620" />
              <mxPoint x="330" y="620" />
            </Array>
          </mxGeometry>
        </mxCell>
        <mxCell id="8gmGzq6QKM89YY9m7t-U-67" value="&lt;font style=&quot;font-size: 15px;&quot;&gt;Request transmitted to Wi-Fi Provider&lt;/font&gt;" style="rounded=1;whiteSpace=wrap;html=1;arcSize=40;fontColor=#000000;fillColor=#ffffc0;strokeColor=#ff0000;" parent="2" vertex="1">
          <mxGeometry x="270" y="660" width="130" height="60" as="geometry" />
        </mxCell>
        <mxCell id="8gmGzq6QKM89YY9m7t-U-69" value="" style="edgeStyle=orthogonalEdgeStyle;html=1;align=left;verticalAlign=top;endArrow=open;endSize=8;strokeColor=#ff0000;rounded=0;exitX=0.5;exitY=1;exitDx=0;exitDy=0;" parent="2" source="8gmGzq6QKM89YY9m7t-U-67" edge="1">
          <mxGeometry x="-1" relative="1" as="geometry">
            <mxPoint x="335" y="790" as="targetPoint" />
            <mxPoint x="340" y="600" as="sourcePoint" />
            <Array as="points">
              <mxPoint x="335" y="790" />
            </Array>
          </mxGeometry>
        </mxCell>
        <mxCell id="8gmGzq6QKM89YY9m7t-U-70" value="" style="ellipse;html=1;shape=endState;fillColor=#000000;strokeColor=#ff0000;" parent="2" vertex="1">
          <mxGeometry x="325" y="1170" width="30" height="30" as="geometry" />
        </mxCell>
        <mxCell id="oC2dPemSwdEFfNwm2UEb-3" value="&lt;font style=&quot;font-size: 15px;&quot;&gt;Unsuccessful Payment&lt;/font&gt;" style="rounded=1;whiteSpace=wrap;html=1;arcSize=40;fontColor=#000000;fillColor=#ffffc0;strokeColor=#ff0000;" vertex="1" parent="2">
          <mxGeometry x="480" y="500" width="150" height="60" as="geometry" />
        </mxCell>
        <mxCell id="oC2dPemSwdEFfNwm2UEb-4" value="" style="edgeStyle=orthogonalEdgeStyle;html=1;verticalAlign=bottom;endArrow=open;endSize=8;strokeColor=#ff0000;rounded=0;entryX=1;entryY=0.5;entryDx=0;entryDy=0;exitX=0.5;exitY=0;exitDx=0;exitDy=0;" edge="1" source="oC2dPemSwdEFfNwm2UEb-3" parent="2" target="8gmGzq6QKM89YY9m7t-U-59">
          <mxGeometry relative="1" as="geometry">
            <mxPoint x="400" y="420" as="targetPoint" />
            <mxPoint x="540" y="490" as="sourcePoint" />
            <Array as="points">
              <mxPoint x="560" y="500" />
              <mxPoint x="560" y="415" />
            </Array>
          </mxGeometry>
        </mxCell>
        <mxCell id="oC2dPemSwdEFfNwm2UEb-25" value="&lt;font style=&quot;font-size: 14px;&quot;&gt;Activates Wi-Fi&amp;nbsp;&lt;/font&gt;" style="rounded=1;whiteSpace=wrap;html=1;arcSize=40;fontColor=#000000;fillColor=#ffffc0;strokeColor=#ff0000;" vertex="1" parent="2">
          <mxGeometry x="270" y="790" width="130" height="60" as="geometry" />
        </mxCell>
        <mxCell id="oC2dPemSwdEFfNwm2UEb-26" value="&lt;font style=&quot;font-size: 14px;&quot;&gt;Update Wi-Fi balance&lt;/font&gt;" style="rounded=1;whiteSpace=wrap;html=1;arcSize=40;fontColor=#000000;fillColor=#ffffc0;strokeColor=#ff0000;" vertex="1" parent="2">
          <mxGeometry x="275" y="1050" width="130" height="60" as="geometry" />
        </mxCell>
        <mxCell id="oC2dPemSwdEFfNwm2UEb-27" value="&lt;font style=&quot;font-size: 15px;&quot;&gt;Operation Successful&lt;/font&gt;" style="rhombus;whiteSpace=wrap;html=1;fontColor=#000000;fillColor=#ffffc0;strokeColor=#ff0000;" vertex="1" parent="2">
          <mxGeometry x="277.5" y="920" width="125" height="90" as="geometry" />
        </mxCell>
        <mxCell id="oC2dPemSwdEFfNwm2UEb-28" value="no" style="edgeStyle=orthogonalEdgeStyle;html=1;align=left;verticalAlign=bottom;endArrow=open;endSize=8;strokeColor=#ff0000;rounded=0;entryX=1.008;entryY=0.617;entryDx=0;entryDy=0;entryPerimeter=0;exitX=1;exitY=0.5;exitDx=0;exitDy=0;" edge="1" source="oC2dPemSwdEFfNwm2UEb-27" parent="2" target="8gmGzq6QKM89YY9m7t-U-67">
          <mxGeometry x="-1" relative="1" as="geometry">
            <mxPoint x="413.03" y="697.02" as="targetPoint" />
            <mxPoint x="411.5" y="965" as="sourcePoint" />
            <Array as="points">
              <mxPoint x="630" y="965" />
              <mxPoint x="630" y="697" />
            </Array>
          </mxGeometry>
        </mxCell>
        <mxCell id="oC2dPemSwdEFfNwm2UEb-29" value="yes" style="edgeStyle=orthogonalEdgeStyle;html=1;align=left;verticalAlign=top;endArrow=open;endSize=8;strokeColor=#ff0000;rounded=0;entryX=0.5;entryY=0;entryDx=0;entryDy=0;" edge="1" source="oC2dPemSwdEFfNwm2UEb-27" parent="2" target="oC2dPemSwdEFfNwm2UEb-26">
          <mxGeometry x="-1" relative="1" as="geometry">
            <mxPoint x="340" y="980" as="targetPoint" />
          </mxGeometry>
        </mxCell>
        <mxCell id="oC2dPemSwdEFfNwm2UEb-31" value="" style="edgeStyle=orthogonalEdgeStyle;html=1;verticalAlign=bottom;endArrow=open;endSize=8;strokeColor=#ff0000;rounded=0;" edge="1" parent="2">
          <mxGeometry relative="1" as="geometry">
            <mxPoint x="340" y="1170" as="targetPoint" />
            <mxPoint x="340" y="1110" as="sourcePoint" />
          </mxGeometry>
        </mxCell>
      </root>
    </mxGraphModel>
  </diagram>
</mxfile>
